<?xml version="1.0" encoding="utf-8"?>
<!-- Generator: Adobe Illustrator 24.1.1, SVG Export Plug-In . SVG Version: 6.00 Build 0)  -->
<svg version="1.1" id="Calque_1" xmlns="http://www.w3.org/2000/svg" xmlns:xlink="http://www.w3.org/1999/xlink" x="0px" y="0px"
	 viewBox="0 0 566.94 566.94" style="enable-background:new 0 0 566.94 566.94;" xml:space="preserve">
<style type="text/css">
	.st0{fill:none;stroke:#000000;}
	.st1{fill:none;}
	.st2{font-family:'MessinaSans-Regular';}
	.st3{font-size:16px;}
	.st4{fill:none;stroke:#000000;stroke-miterlimit:10;}
	.st5{fill:none;stroke:#000000;stroke-width:0.7861;}
	.st6{fill:none;stroke:#000000;stroke-width:0.996;}
</style>
<g>
	<circle class="st0" cx="283.49" cy="399.59" r="4.56"/>
	<circle class="st0" cx="283.49" cy="59.64" r="3.21"/>
	<path class="st0" d="M283.49,404.16"/>
	<circle class="st0" cx="14.01" cy="255.7" r="3.34"/>
	<circle class="st0" cx="552.92" cy="255.7" r="3.34"/>
	<line class="st0" x1="226.53" y1="435.12" x2="226.53" y2="444.05"/>
	<line class="st0" x1="340.56" y1="435.12" x2="340.56" y2="444.05"/>
	<polyline class="st0" points="145.05,255.7 94.42,255.7 94.42,266.3 	"/>
	<polyline class="st0" points="422.49,255.7 473.11,255.7 473.11,266.3 	"/>
	<line class="st0" x1="66.63" y1="252.98" x2="66.63" y2="258.56"/>
	<line class="st0" x1="500.58" y1="252.98" x2="500.58" y2="258.56"/>
	<line class="st0" x1="226.63" y1="68.18" x2="226.63" y2="71.81"/>
	<line class="st0" x1="340.58" y1="68.18" x2="340.58" y2="71.81"/>
	<line class="st0" x1="226.63" y1="45.54" x2="226.63" y2="55.08"/>
	<line class="st0" x1="340.58" y1="45.54" x2="340.58" y2="55.08"/>
	<line class="st0" x1="226.49" y1="13.13" x2="340.58" y2="13.13"/>
	<line class="st0" x1="226.49" y1="553.81" x2="340.58" y2="553.81"/>
	<circle cx="283.49" cy="399.59" r="4.56"/>
	<circle class="st0" cx="283.49" cy="59.64" r="3.21"/>
	<path class="st0" d="M283.49,404.16"/>
	<circle class="st0" cx="283.49" cy="421.08" r="4.56"/>
	<path class="st0" d="M283.49,425.65"/>
	<circle class="st0" cx="283.49" cy="421.08" r="4.56"/>
	<path class="st0" d="M283.49,425.65"/>
	<circle class="st0" cx="283.49" cy="442.57" r="4.56"/>
	<path class="st0" d="M283.49,447.14"/>
	<circle class="st0" cx="283.49" cy="442.57" r="4.56"/>
	<path class="st0" d="M283.49,447.14"/>
	<circle class="st0" cx="283.49" cy="464.06" r="4.56"/>
	<path class="st0" d="M283.49,468.63"/>
	<circle class="st0" cx="283.49" cy="464.06" r="4.56"/>
	<path class="st0" d="M283.49,468.63"/>
	<circle class="st0" cx="283.49" cy="485.55" r="4.56"/>
	<path class="st0" d="M283.49,490.12"/>
	<circle class="st0" cx="283.49" cy="485.55" r="4.56"/>
	<path class="st0" d="M283.49,490.12"/>
	<circle class="st0" cx="14.01" cy="255.7" r="3.34"/>
	<circle class="st0" cx="552.92" cy="255.7" r="3.34"/>
	<line class="st0" x1="226.53" y1="435.12" x2="226.53" y2="444.05"/>
	<line class="st0" x1="340.56" y1="435.12" x2="340.56" y2="444.05"/>
	<polyline class="st0" points="145.05,255.7 94.42,255.7 94.42,266.3 	"/>
	<polyline class="st0" points="422.49,255.7 473.11,255.7 473.11,266.3 	"/>
	<line class="st0" x1="66.63" y1="252.98" x2="66.63" y2="258.56"/>
	<line class="st0" x1="500.58" y1="252.98" x2="500.58" y2="258.56"/>
	<line class="st0" x1="226.63" y1="68.18" x2="226.63" y2="71.81"/>
	<line class="st0" x1="340.58" y1="68.18" x2="340.58" y2="71.81"/>
	<line class="st0" x1="226.63" y1="45.54" x2="226.63" y2="55.08"/>
	<line class="st0" x1="340.58" y1="45.54" x2="340.58" y2="55.08"/>
	<line class="st0" x1="226.49" y1="13.13" x2="340.58" y2="13.13"/>
	<line class="st0" x1="226.49" y1="553.81" x2="340.58" y2="553.81"/>
	<rect x="174.09" y="115.5" class="st1" width="218.75" height="15.22"/>
	<text transform="matrix(1 0 0 1 198.5898 126.8779)" class="st2 st3">Transfert to mars</text>
	<polygon class="st4" points="72.67,121.9 101.11,154.74 101.11,89.06 	"/>
	<polygon class="st4" points="493.84,121.9 465.4,154.74 465.4,89.06 	"/>
	<g>
		<rect x="174.7" y="232.31" class="st5" width="222.53" height="50.53"/>
		<rect x="211.22" y="250.72" class="st1" width="144.5" height="14.38"/>
		<text transform="matrix(1 0 0 1 261.3091 262.0966)" class="st2 st3">BURN</text>
		<polyline class="st6" points="405.22,244.67 405.22,223.31 166.72,223.31 166.72,244.67 		"/>
		<polyline class="st6" points="166.72,269.91 166.72,291.27 405.22,291.27 405.22,269.91 		"/>
	</g>
</g>
</svg>
