<svg id="Calque_1" data-name="Calque 1" xmlns="http://www.w3.org/2000/svg" viewBox="0 0 793.82 1078.55"><defs><style>.cls-1{fill:none;stroke:#fff;stroke-miterlimit:10;stroke-width:11px;}</style></defs><path class="cls-1" d="M249.78,355.07q7,6.1,14.63,11.58"/><path class="cls-1" d="M180.68,149.6a193.07,193.07,0,0,0-4.83,43.76,213.08,213.08,0,0,0,19.24,88.76"/><path class="cls-1" d="M603.3,186c-2-58.49-28.1-102.69-68.77-131.75"/><path class="cls-1" d="M197.14,106.76a161.8,161.8,0,0,1,47.62-52.53"/><path class="cls-1" d="M249.78,355.07A73.12,73.12,0,0,1,232.47,348"/><path class="cls-1" d="M269.49,357.5h-1a73.25,73.25,0,0,1-18.73-2.43"/><path class="cls-1" d="M534.53,54.23h86.11V8.39H209.09A73.46,73.46,0,0,0,180.68,149.6"/><path class="cls-1" d="M195.09,282.12c0,.64-.05,1.27-.05,1.91a73.33,73.33,0,0,0,4.24,24.58"/><path class="cls-1" d="M197.14,106.76a27.62,27.62,0,0,1,12-52.53h35.67"/><path class="cls-1" d="M195.09,282.12a73.53,73.53,0,0,1,73.42-71.55h115.4a27.63,27.63,0,1,0,0-55.25H209.09a73.08,73.08,0,0,1-28.41-5.72"/><path class="cls-1" d="M197.14,106.76a27.5,27.5,0,0,0,12,2.72H383.91a73.47,73.47,0,1,1,0,146.93H268.51a27.61,27.61,0,0,0-12.59,52.2"/><line class="cls-1" x1="534.53" y1="54.23" x2="244.76" y2="54.23"/><line class="cls-1" x1="226.45" y1="440.67" x2="591.19" y2="440.67"/><line class="cls-1" x1="242.05" y1="409.15" x2="575.53" y2="409.15"/><path class="cls-1" d="M211.26,472.19c19.81-43,38.4-78.77,53.15-105.54"/><path class="cls-1" d="M575.53,409.15c-12.67-24.77-24-45.35-33-61.14"/><line class="cls-1" x1="258.77" y1="377.63" x2="558.87" y2="377.63"/><path class="cls-1" d="M606.15,472.19c-10.7-23.21-21-44.32-30.62-63"/><path class="cls-1" d="M269.49,357.5q-2.44,4.38-5.08,9.15"/><path class="cls-1" d="M274.86,348q-2.57,4.49-5.37,9.49"/><path class="cls-1" d="M746.61,1008.08q-.81-15.84-2.06-31.53"/><line class="cls-1" x1="79.82" y1="913.51" x2="737.81" y2="913.51"/><line class="cls-1" x1="118.67" y1="724.37" x2="698.97" y2="724.37"/><path class="cls-1" d="M733.38,882A1437.6,1437.6,0,0,0,688.7,688.73"/><line class="cls-1" x1="95.74" y1="818.94" x2="721.89" y2="818.94"/><line class="cls-1" x1="84.17" y1="881.99" x2="733.38" y2="881.99"/><line class="cls-1" x1="89.69" y1="850.46" x2="727.94" y2="850.46"/><path class="cls-1" d="M70.74,1008.08c5.34-104.31,24.91-204,50.46-293.8"/><path class="cls-1" d="M744.55,976.55c-2.52-32.07-6.32-63.64-11.17-94.56"/><line class="cls-1" x1="72.82" y1="976.55" x2="744.55" y2="976.55"/><line class="cls-1" x1="110.28" y1="755.9" x2="707.35" y2="755.9"/><line class="cls-1" x1="76.11" y1="945.03" x2="741.53" y2="945.03"/><line class="cls-1" x1="102.64" y1="787.42" x2="715" y2="787.42"/><path class="cls-1" d="M69.82,1030.76q.34-11.37.92-22.68"/><path class="cls-1" d="M747.53,1030.76q-.36-11.37-.92-22.68"/><line class="cls-1" x1="70.74" y1="1008.08" x2="746.61" y2="1008.08"/><path class="cls-1" d="M675.71,647.87q-8.49-25.5-17.37-49.59"/><line class="cls-1" x1="197.21" y1="503.72" x2="620.29" y2="503.72"/><path class="cls-1" d="M620.29,503.72q-7.14-16.35-14.14-31.53"/><line class="cls-1" x1="255.74" y1="566.76" x2="646.33" y2="566.76"/><path class="cls-1" d="M176.54,552.86c11.64-29.05,23.38-56.05,34.72-80.67"/><line class="cls-1" x1="184.05" y1="535.24" x2="633.59" y2="535.24"/><path class="cls-1" d="M658.34,598.28c-12.49-33.93-25.39-65.58-38.05-94.56"/><line class="cls-1" x1="211.26" y1="472.19" x2="606.15" y2="472.19"/><line class="cls-1" x1="409.19" y1="598.28" x2="658.34" y2="598.28"/><path class="cls-1" d="M688.7,688.73h4.43a16.45,16.45,0,0,0,15.28-22.58,25.86,25.86,0,0,0-19.28-15.79l-13.42-2.5"/><line class="cls-1" x1="622.32" y1="688.63" x2="688.7" y2="688.73"/><line class="cls-1" x1="622.32" y1="637.94" x2="675.71" y2="647.87"/><line class="cls-1" x1="479.67" y1="688.43" x2="383.74" y2="688.29"/><line class="cls-1" x1="409.19" y1="598.28" x2="479.67" y2="611.4"/><line class="cls-1" x1="409.19" y1="598.28" x2="383.74" y2="593.55"/><line class="cls-1" x1="499.41" y1="688.46" x2="602.57" y2="688.6"/><line class="cls-1" x1="602.57" y1="634.26" x2="499.41" y2="615.07"/><line class="cls-1" x1="255.74" y1="688.1" x2="364" y2="688.26"/><line class="cls-1" x1="364" y1="589.88" x2="255.74" y2="569.74"/><line class="cls-1" x1="236" y1="688.07" x2="173.27" y2="687.98"/><line class="cls-1" x1="236" y1="566.06" x2="176.94" y2="555.08"/><polyline class="cls-1" points="236 688.07 236 703.99 255.74 703.99 255.74 688.1"/><polyline class="cls-1" points="236 566.06 236 556.25 255.74 556.25 255.74 566.76"/><line class="cls-1" x1="255.74" y1="566.76" x2="255.74" y2="569.74"/><line class="cls-1" x1="255.74" y1="688.1" x2="255.74" y2="569.74"/><line class="cls-1" x1="236" y1="566.06" x2="236" y2="688.07"/><polyline class="cls-1" points="383.74 688.29 383.74 703.99 364 703.99 364 688.26"/><polyline class="cls-1" points="364 589.88 364 574.72 383.74 574.72 383.74 593.55"/><line class="cls-1" x1="383.74" y1="688.29" x2="383.74" y2="593.55"/><line class="cls-1" x1="364" y1="589.88" x2="364" y2="688.26"/><polyline class="cls-1" points="479.67 688.43 479.67 703.99 499.41 703.99 499.41 688.46"/><polyline class="cls-1" points="479.67 611.4 479.67 599.56 499.41 599.56 499.41 615.07"/><line class="cls-1" x1="479.67" y1="688.43" x2="479.67" y2="611.4"/><line class="cls-1" x1="499.41" y1="688.46" x2="499.41" y2="615.07"/><polyline class="cls-1" points="622.32 688.63 622.32 703.99 602.57 703.99 602.57 688.61"/><polyline class="cls-1" points="602.57 634.26 602.57 618.42 622.32 618.42 622.32 637.94"/><line class="cls-1" x1="622.32" y1="688.63" x2="622.32" y2="637.94"/><line class="cls-1" x1="602.57" y1="634.26" x2="602.57" y2="688.6"/><path class="cls-1" d="M176.54,552.86c-4.51-23.34-16.6-38.33-48.56-38.33a100,100,0,0,0-6.78,199.75"/><path class="cls-1" d="M121.2,714.28c2.24.15,4.5.24,6.78.24,26.18,0,39-10.07,45.29-26.54"/><path class="cls-1" d="M176.54,552.86c.14.73.27,1.47.4,2.22"/><path class="cls-1" d="M173.27,688c7-18.27,5.82-44.41,5.82-73.46,0-22.26.67-42.83-2.15-59.44"/><polyline class="cls-1" points="69.82 1030.76 50.37 1030.76 50.37 1070.16 765.84 1070.16 765.84 1030.76 747.53 1030.76"/><line class="cls-1" x1="69.82" y1="1030.76" x2="747.53" y2="1030.76"/><line class="cls-1" x1="670.35" y1="308.61" x2="615.1" y2="308.61"/><line class="cls-1" x1="669.51" y1="348.01" x2="615.94" y2="348.01"/><polyline class="cls-1" points="199.28 308.61 118.19 308.61 118.19 348.01 232.47 348.01"/><line class="cls-1" x1="569.59" y1="348.01" x2="542.51" y2="348.01"/><line class="cls-1" x1="514.01" y1="308.61" x2="569.26" y2="308.61"/><line class="cls-1" x1="468.17" y1="308.61" x2="255.92" y2="308.61"/><line class="cls-1" x1="274.86" y1="348.01" x2="232.47" y2="348.01"/><line class="cls-1" x1="199.28" y1="308.61" x2="255.92" y2="308.61"/><line class="cls-1" x1="274.86" y1="348.01" x2="542.51" y2="348.01"/><path class="cls-1" d="M670.35,308.61V166.42h45.84V341.24A73.46,73.46,0,0,1,569.59,348"/><path class="cls-1" d="M603.3,186a72.94,72.94,0,0,1,11.8,39.86v82.77"/><path class="cls-1" d="M615.94,348a27.63,27.63,0,0,0,53.57,0"/><path class="cls-1" d="M569.26,308.61V225.84a27.63,27.63,0,1,0-55.25,0v82.77"/><path class="cls-1" d="M468.17,308.61V225.84A73.43,73.43,0,0,1,603.3,186"/><path class="cls-1" d="M669.51,348a27.41,27.41,0,0,0,.84-6.77V308.61"/><path class="cls-1" d="M615.1,308.61v32.63a27.9,27.9,0,0,0,.84,6.77"/><path class="cls-1" d="M569.59,348c-.21-2.23-.33-4.48-.33-6.77V308.61"/><polyline class="cls-1" points="468.18 308.61 468.18 313.05 514.01 313.05 514.01 308.61"/></svg>