<svg id="Calque_1" data-name="Calque 1" xmlns="http://www.w3.org/2000/svg" viewBox="0 0 793.82 663.79"><defs><style>.cls-1{fill:none;stroke:#fff;stroke-miterlimit:10;stroke-width:11px;}</style></defs><path class="cls-1" d="M309.8,275.22a121.63,121.63,0,0,1-28.91-128.13"/><path class="cls-1" d="M222,551.25c2.7-19.27,6-37.9,9.78-55.78"/><path class="cls-1" d="M558,495.47c3.65,17.82,6.86,36.44,9.46,55.78"/><path class="cls-1" d="M511.09,341.76a849.39,849.39,0,0,1,39.31,120"/><line class="cls-1" x1="255.92" y1="411.66" x2="534.18" y2="411.66"/><path class="cls-1" d="M309.8,275.22c-13.77,26-46.89,94-70.21,186.5"/><path class="cls-1" d="M309.8,275.22c4-7.59,6.39-11.61,6.39-11.61"/><line class="cls-1" x1="570.66" y1="578.22" x2="219.39" y2="578.22"/><path class="cls-1" d="M222,551.25a765.39,765.39,0,0,0-7.57,106.35H574.68a792.07,792.07,0,0,0-4-79.38"/><path class="cls-1" d="M570.66,578.22q-1.38-13.69-3.17-27"/><line class="cls-1" x1="571.93" y1="605.39" x2="218.17" y2="605.39"/><line class="cls-1" x1="567.49" y1="551.25" x2="222" y2="551.25"/><line class="cls-1" x1="374.08" y1="263.61" x2="459.05" y2="263.61"/><line class="cls-1" x1="316.19" y1="211.18" x2="316.19" y2="263.61"/><line class="cls-1" x1="316.19" y1="263.61" x2="345.06" y2="263.61"/><polyline class="cls-1" points="511.09 341.76 555.1 341.76 531.99 297.79"/><polyline class="cls-1" points="511.09 341.76 452.89 341.76 476 297.79"/><line class="cls-1" x1="459.05" y1="263.61" x2="459.24" y2="263.61"/><polyline class="cls-1" points="531.99 297.79 548.94 297.79 548.94 127.92"/><line class="cls-1" x1="459.05" y1="127.92" x2="459.05" y2="257.96"/><polyline class="cls-1" points="459.05 263.61 459.05 297.79 476 297.79"/><line class="cls-1" x1="459.05" y1="263.61" x2="459.05" y2="257.96"/><line class="cls-1" x1="531.99" y1="297.79" x2="476" y2="297.79"/><polyline class="cls-1" points="558.03 495.47 571.18 495.47 571.18 461.72 550.4 461.72"/><polyline class="cls-1" points="239.59 461.72 217.93 461.72 217.93 495.47 231.78 495.47"/><line class="cls-1" x1="558.03" y1="495.47" x2="231.78" y2="495.47"/><line class="cls-1" x1="550.4" y1="461.72" x2="239.59" y2="461.72"/><line class="cls-1" x1="355.36" y1="6.19" x2="384.64" y2="6.19"/><line class="cls-1" x1="296.82" y1="6.19" x2="326.09" y2="6.19"/><line class="cls-1" x1="326.09" y1="127.43" x2="326.09" y2="6.19"/><line class="cls-1" x1="472.46" y1="6.19" x2="501.73" y2="6.19"/><line class="cls-1" x1="501.73" y1="6.19" x2="531.01" y2="6.19"/><line class="cls-1" x1="501.73" y1="127.43" x2="501.73" y2="6.19"/><line class="cls-1" x1="326.09" y1="6.19" x2="355.36" y2="6.19"/><line class="cls-1" x1="531.01" y1="127.43" x2="531.01" y2="6.19"/><line class="cls-1" x1="355.36" y1="127.43" x2="355.36" y2="6.19"/><line class="cls-1" x1="413.91" y1="127.43" x2="413.91" y2="6.19"/><line class="cls-1" x1="472.46" y1="127.43" x2="472.46" y2="6.19"/><line class="cls-1" x1="413.91" y1="6.19" x2="443.18" y2="6.19"/><line class="cls-1" x1="384.64" y1="6.19" x2="413.91" y2="6.19"/><line class="cls-1" x1="384.64" y1="127.43" x2="384.64" y2="6.19"/><line class="cls-1" x1="443.18" y1="6.19" x2="472.46" y2="6.19"/><polyline class="cls-1" points="560.28 6.19 582.44 6.19 582.44 127.92 548.94 127.92"/><line class="cls-1" x1="560.28" y1="6.19" x2="531.01" y2="6.19"/><line class="cls-1" x1="443.18" y1="6.19" x2="443.18" y2="127.43"/><line class="cls-1" x1="560.28" y1="6.19" x2="560.28" y2="127.43"/><line class="cls-1" x1="459.05" y1="127.92" x2="299.36" y2="127.92"/><line class="cls-1" x1="459.05" y1="127.92" x2="548.94" y2="127.92"/><line class="cls-1" x1="238.27" y1="6.19" x2="267.54" y2="6.19"/><line class="cls-1" x1="296.82" y1="6.19" x2="267.54" y2="6.19"/><line class="cls-1" x1="296.82" y1="6.19" x2="296.82" y2="123.31"/><line class="cls-1" x1="267.54" y1="70.16" x2="267.54" y2="6.19"/><polyline class="cls-1" points="238.27 6.19 211.38 6.19 211.38 127.92 270.33 127.92"/><line class="cls-1" x1="267.54" y1="122.85" x2="267.54" y2="127.43"/><line class="cls-1" x1="238.27" y1="127.43" x2="238.27" y2="69.7"/><line class="cls-1" x1="238.27" y1="6.19" x2="238.27" y2="31.68"/><line class="cls-1" x1="270.33" y1="127.92" x2="280.89" y2="147.09"/><line class="cls-1" x1="316.19" y1="211.18" x2="280.89" y2="147.09"/><line class="cls-1" x1="299.36" y1="127.92" x2="345.51" y2="211.73"/><polyline class="cls-1" points="374.08 263.61 402.96 316.03 380.69 328.3 345.06 263.61"/><line class="cls-1" x1="374.08" y1="263.61" x2="345.51" y2="211.73"/><line class="cls-1" x1="316.19" y1="211.18" x2="345.06" y2="263.61"/><line class="cls-1" x1="299.36" y1="127.92" x2="296.82" y2="123.31"/><polyline class="cls-1" points="267.54 70.16 244.47 28.26 238.27 31.68"/><line class="cls-1" x1="267.54" y1="70.16" x2="296.82" y2="123.31"/><line class="cls-1" x1="270.33" y1="127.92" x2="267.54" y2="122.85"/><line class="cls-1" x1="267.54" y1="122.85" x2="238.27" y2="69.7"/><polyline class="cls-1" points="238.27 31.68 222.2 40.52 238.27 69.7"/></svg>