<svg id="Calque_1" data-name="Calque 1" xmlns="http://www.w3.org/2000/svg" viewBox="0 0 793.82 704.25"><defs><style>.cls-1{fill:none;stroke:#fff;stroke-miterlimit:10;stroke-width:11px;}</style></defs><line class="cls-1" x1="255.05" y1="141.14" x2="255.05" y2="141.89"/><line class="cls-1" x1="537.38" y1="141.14" x2="537.38" y2="141.89"/><line class="cls-1" x1="276.77" y1="141.14" x2="276.77" y2="141.89"/><line class="cls-1" x1="298.49" y1="141.89" x2="298.49" y2="141.14"/><path class="cls-1" d="M242.59,297.08l31.9-81.19v98.94a61.33,61.33,0,0,0,122.28,6.77"/><line class="cls-1" x1="260.89" y1="141.14" x2="244.63" y2="182.54"/><path class="cls-1" d="M314.48,141.14V314.83a21.35,21.35,0,1,0,42.69,0V293.55"/><line class="cls-1" x1="515.66" y1="141.14" x2="515.66" y2="141.89"/><path class="cls-1" d="M551.23,297.08l-32.3-82.22V313.8a61.33,61.33,0,0,1-122.16,7.8"/><line class="cls-1" x1="493.94" y1="141.89" x2="493.94" y2="141.14"/><line class="cls-1" x1="549.19" y1="182.54" x2="532.93" y2="141.14"/><path class="cls-1" d="M478.94,141.14V313.8a21.35,21.35,0,0,1-42.69,0V293.55"/><path class="cls-1" d="M396.26,293.55V313.8a62.81,62.81,0,0,0,.51,7.8"/><polyline class="cls-1" points="462.48 196.12 462.48 293.55 436.25 293.55"/><polyline class="cls-1" points="357.17 293.55 332.69 293.55 332.69 196.12"/><line class="cls-1" x1="357.17" y1="293.55" x2="396.26" y2="293.55"/><line class="cls-1" x1="396.26" y1="293.55" x2="436.25" y2="293.55"/><line class="cls-1" x1="450.51" y1="141.14" x2="450.51" y2="141.89"/><line class="cls-1" x1="363.64" y1="141.14" x2="363.64" y2="141.89"/><line class="cls-1" x1="428.79" y1="141.89" x2="428.79" y2="141.14"/><line class="cls-1" x1="385.36" y1="141.89" x2="385.36" y2="141.14"/><line class="cls-1" x1="407.07" y1="141.14" x2="407.07" y2="141.89"/><line class="cls-1" x1="472.23" y1="141.14" x2="472.23" y2="141.89"/><line class="cls-1" x1="320.2" y1="141.89" x2="320.2" y2="141.14"/><line class="cls-1" x1="341.92" y1="141.14" x2="341.92" y2="141.89"/><polyline class="cls-1" points="476.92 141.14 470.33 196.12 462.48 196.12"/><polyline class="cls-1" points="318.25 141.14 324.85 196.12 332.69 196.12"/><line class="cls-1" x1="462.48" y1="196.12" x2="332.69" y2="196.12"/><line class="cls-1" x1="168.18" y1="224.82" x2="168.18" y2="297.08"/><line class="cls-1" x1="229.08" y1="224.82" x2="229.08" y2="297.08"/><path class="cls-1" d="M325.41,522.54c-21.92-62-48.64-103.38-56.09-114.32"/><path class="cls-1" d="M128,408.22c-7.23,11-33.44,53.14-55.27,114.32"/><path class="cls-1" d="M63.08,552.08C50.29,595,40.79,644.93,40.79,698.84H356.47A522.74,522.74,0,0,0,335,552.08"/><path class="cls-1" d="M459.65,552.08c-12.8,42.88-22.3,92.85-22.3,146.76H753a522.74,522.74,0,0,0-21.52-146.76"/><path class="cls-1" d="M722,522.54c-21.91-62-48.63-103.38-56.08-114.32"/><path class="cls-1" d="M524.59,408.22c-7.23,11-33.44,53.14-55.27,114.32"/><polyline class="cls-1" points="334.95 552.08 350.85 552.08 350.85 522.54 325.41 522.54"/><polyline class="cls-1" points="72.75 522.54 46.41 522.54 46.41 552.08 63.08 552.08"/><line class="cls-1" x1="325.41" y1="522.54" x2="72.75" y2="522.54"/><line class="cls-1" x1="334.95" y1="552.08" x2="63.08" y2="552.08"/><polyline class="cls-1" points="459.65 552.08 442.97 552.08 442.97 522.54 469.32 522.54"/><polyline class="cls-1" points="731.51 552.08 747.42 552.08 747.42 522.54 721.97 522.54"/><line class="cls-1" x1="731.51" y1="552.08" x2="459.65" y2="552.08"/><line class="cls-1" x1="721.97" y1="522.54" x2="469.32" y2="522.54"/><polyline class="cls-1" points="242.59 297.08 269.56 297.08 269.56 360.72 288.38 360.72 288.38 408.22 269.32 408.22"/><polyline class="cls-1" points="168.18 297.08 131.22 297.08 131.22 360.72 108.88 360.72 108.88 408.22 128.02 408.22"/><line class="cls-1" x1="242.59" y1="297.08" x2="229.08" y2="297.08"/><line class="cls-1" x1="168.18" y1="297.08" x2="229.08" y2="297.08"/><line class="cls-1" x1="128.02" y1="408.22" x2="269.32" y2="408.22"/><line class="cls-1" x1="233.33" y1="141.14" x2="233.33" y2="141.89"/><polyline class="cls-1" points="168.18 224.81 152.63 224.81 152.63 141.14"/><line class="cls-1" x1="211.61" y1="141.14" x2="211.61" y2="141.89"/><line class="cls-1" x1="168.18" y1="141.89" x2="168.18" y2="141.14"/><line class="cls-1" x1="189.9" y1="141.14" x2="189.9" y2="141.89"/><line class="cls-1" x1="244.63" y1="182.54" x2="244.63" y2="141.14"/><polyline class="cls-1" points="244.63 182.54 244.63 224.81 229.08 224.81"/><line class="cls-1" x1="229.08" y1="224.82" x2="168.18" y2="224.82"/><line class="cls-1" x1="625.64" y1="297.08" x2="625.64" y2="224.82"/><line class="cls-1" x1="564.74" y1="224.82" x2="564.74" y2="297.08"/><polyline class="cls-1" points="665.89 408.22 684.94 408.22 684.94 360.72 662.6 360.72 662.6 297.08 625.64 297.08"/><polyline class="cls-1" points="551.23 297.08 524.26 297.08 524.26 360.72 505.44 360.72 505.44 408.22 524.59 408.22"/><line class="cls-1" x1="551.23" y1="297.08" x2="564.74" y2="297.08"/><line class="cls-1" x1="665.89" y1="408.22" x2="524.59" y2="408.22"/><line class="cls-1" x1="625.64" y1="297.08" x2="564.74" y2="297.08"/><polyline class="cls-1" points="625.64 224.81 641.19 224.81 641.19 141.14"/><line class="cls-1" x1="559.1" y1="141.14" x2="559.1" y2="141.89"/><line class="cls-1" x1="580.82" y1="141.89" x2="580.82" y2="141.14"/><line class="cls-1" x1="624.25" y1="141.89" x2="624.25" y2="141.14"/><line class="cls-1" x1="602.53" y1="141.14" x2="602.53" y2="141.89"/><line class="cls-1" x1="549.19" y1="141.14" x2="549.19" y2="182.54"/><polyline class="cls-1" points="549.2 182.54 549.2 224.81 564.74 224.81"/><line class="cls-1" x1="564.74" y1="224.82" x2="625.64" y2="224.82"/><line class="cls-1" x1="255.05" y1="5.41" x2="276.77" y2="5.41"/><line class="cls-1" x1="260.89" y1="141.14" x2="255.05" y2="141.14"/><line class="cls-1" x1="276.77" y1="141.14" x2="260.89" y2="141.14"/><line class="cls-1" x1="537.38" y1="5.41" x2="559.1" y2="5.41"/><line class="cls-1" x1="549.19" y1="141.14" x2="537.38" y2="141.14"/><line class="cls-1" x1="549.19" y1="141.14" x2="559.1" y2="141.14"/><line class="cls-1" x1="298.49" y1="5.41" x2="320.2" y2="5.41"/><line class="cls-1" x1="314.48" y1="141.14" x2="318.25" y2="141.14"/><line class="cls-1" x1="314.48" y1="141.14" x2="298.49" y2="141.14"/><line class="cls-1" x1="318.25" y1="141.14" x2="320.2" y2="141.14"/><line class="cls-1" x1="298.49" y1="5.41" x2="276.77" y2="5.41"/><line class="cls-1" x1="276.77" y1="141.14" x2="298.49" y2="141.14"/><line class="cls-1" x1="298.49" y1="5.41" x2="298.49" y2="141.14"/><line class="cls-1" x1="537.38" y1="5.41" x2="515.66" y2="5.41"/><line class="cls-1" x1="532.93" y1="141.14" x2="537.38" y2="141.14"/><line class="cls-1" x1="515.66" y1="141.14" x2="532.93" y2="141.14"/><line class="cls-1" x1="493.94" y1="5.41" x2="515.66" y2="5.41"/><line class="cls-1" x1="515.66" y1="141.14" x2="493.94" y2="141.14"/><line class="cls-1" x1="515.66" y1="141.14" x2="515.66" y2="5.41"/><line class="cls-1" x1="428.79" y1="5.41" x2="450.51" y2="5.41"/><line class="cls-1" x1="450.51" y1="141.14" x2="428.79" y2="141.14"/><line class="cls-1" x1="472.23" y1="5.41" x2="493.94" y2="5.41"/><line class="cls-1" x1="478.94" y1="141.14" x2="476.92" y2="141.14"/><line class="cls-1" x1="478.94" y1="141.14" x2="493.94" y2="141.14"/><line class="cls-1" x1="476.92" y1="141.14" x2="472.23" y2="141.14"/><line class="cls-1" x1="472.23" y1="5.41" x2="450.51" y2="5.41"/><line class="cls-1" x1="450.51" y1="141.14" x2="472.23" y2="141.14"/><line class="cls-1" x1="472.23" y1="5.41" x2="472.23" y2="141.14"/><line class="cls-1" x1="428.79" y1="5.41" x2="407.07" y2="5.41"/><line class="cls-1" x1="407.07" y1="141.14" x2="428.79" y2="141.14"/><line class="cls-1" x1="428.79" y1="5.41" x2="428.79" y2="141.14"/><line class="cls-1" x1="385.36" y1="5.41" x2="363.64" y2="5.41"/><line class="cls-1" x1="363.64" y1="141.14" x2="385.36" y2="141.14"/><line class="cls-1" x1="320.2" y1="5.41" x2="341.92" y2="5.41"/><line class="cls-1" x1="320.2" y1="141.14" x2="341.92" y2="141.14"/><line class="cls-1" x1="385.36" y1="5.41" x2="407.07" y2="5.41"/><line class="cls-1" x1="407.07" y1="141.14" x2="385.36" y2="141.14"/><line class="cls-1" x1="385.36" y1="5.41" x2="385.36" y2="141.14"/><line class="cls-1" x1="341.92" y1="5.41" x2="363.64" y2="5.41"/><line class="cls-1" x1="363.64" y1="141.14" x2="341.92" y2="141.14"/><line class="cls-1" x1="341.92" y1="141.14" x2="341.92" y2="5.41"/><line class="cls-1" x1="168.18" y1="5.41" x2="189.9" y2="5.41"/><line class="cls-1" x1="189.9" y1="141.14" x2="168.18" y2="141.14"/><line class="cls-1" x1="211.61" y1="5.41" x2="189.9" y2="5.41"/><line class="cls-1" x1="189.9" y1="141.14" x2="211.61" y2="141.14"/><line class="cls-1" x1="152.63" y1="141.14" x2="124.53" y2="141.14"/><line class="cls-1" x1="168.18" y1="5.41" x2="124.53" y2="5.41"/><line class="cls-1" x1="152.63" y1="141.14" x2="168.18" y2="141.14"/><line class="cls-1" x1="255.05" y1="5.41" x2="233.33" y2="5.41"/><line class="cls-1" x1="244.63" y1="141.14" x2="255.05" y2="141.14"/><line class="cls-1" x1="233.33" y1="141.14" x2="244.63" y2="141.14"/><line class="cls-1" x1="255.05" y1="5.41" x2="255.05" y2="141.14"/><line class="cls-1" x1="211.61" y1="5.41" x2="233.33" y2="5.41"/><line class="cls-1" x1="233.33" y1="141.14" x2="211.61" y2="141.14"/><line class="cls-1" x1="211.61" y1="5.41" x2="211.61" y2="141.14"/><line class="cls-1" x1="624.25" y1="5.41" x2="602.53" y2="5.41"/><line class="cls-1" x1="602.53" y1="141.14" x2="624.25" y2="141.14"/><line class="cls-1" x1="670.38" y1="5.41" x2="624.25" y2="5.41"/><line class="cls-1" x1="641.19" y1="141.14" x2="670.38" y2="141.14"/><line class="cls-1" x1="641.19" y1="141.14" x2="624.25" y2="141.14"/><line class="cls-1" x1="580.82" y1="5.41" x2="602.53" y2="5.41"/><line class="cls-1" x1="602.53" y1="141.14" x2="580.82" y2="141.14"/><line class="cls-1" x1="602.53" y1="141.14" x2="602.53" y2="5.41"/><line class="cls-1" x1="580.82" y1="5.41" x2="559.1" y2="5.41"/><line class="cls-1" x1="559.1" y1="141.14" x2="580.82" y2="141.14"/><line class="cls-1" x1="559.1" y1="141.14" x2="559.1" y2="5.41"/><polyline class="cls-1" points="70.95 207.85 56.03 262.76 136.02 262.76 121.1 207.85"/><polyline class="cls-1" points="121.1 207.85 124.53 207.85 124.53 141.14"/><polyline class="cls-1" points="70.95 207.85 67.52 207.85 67.52 5.41 96.03 5.41 124.53 5.41"/><line class="cls-1" x1="124.53" y1="141.14" x2="124.53" y2="5.41"/><line class="cls-1" x1="121.1" y1="207.85" x2="70.95" y2="207.85"/><polyline class="cls-1" points="673.82 207.85 658.9 262.76 738.88 262.76 723.96 207.85"/><polyline class="cls-1" points="673.82 207.85 670.38 207.85 670.38 141.14"/><polyline class="cls-1" points="723.96 207.85 727.4 207.85 727.4 5.41 698.89 5.41 670.38 5.41"/><line class="cls-1" x1="670.38" y1="5.41" x2="670.38" y2="141.14"/><line class="cls-1" x1="723.96" y1="207.85" x2="673.82" y2="207.85"/></svg>