<svg id="Calque_1" data-name="Calque 1" xmlns="http://www.w3.org/2000/svg" viewBox="0 0 793.82 703.45"><defs><style>.cls-1{fill:none;stroke:#fff;stroke-miterlimit:10;stroke-width:11px;}</style></defs><path class="cls-1" d="M644.9,594.21c3.29,33.7,5.15,68.09,5.15,102.82H308.35"/><path class="cls-1" d="M150.21,594.21c-3.27,33.68-5.11,68.07-5.11,102.82H308.35"/><polyline class="cls-1" points="308.35 603.13 308.35 643.11 308.35 697.03"/><path class="cls-1" d="M152.22,575q4-35,9.8-68.74"/><path class="cls-1" d="M610.28,399.23c-6.06-23.93-12.5-46.91-19.11-68.74"/><path class="cls-1" d="M642.88,575q-4-35-9.84-68.74"/><line class="cls-1" x1="308.35" y1="515.22" x2="308.35" y2="563.47"/><path class="cls-1" d="M554.61,223.42c-10-26.36-19.49-49.08-27.48-67.39"/><path class="cls-1" d="M585.24,311.33c-7.81-24.67-15.75-47.68-23.47-68.74"/><path class="cls-1" d="M629.62,487.14c-4.39-23.57-9.33-46.53-14.63-68.74"/><path class="cls-1" d="M165.44,487.14c4.38-23.57,9.3-46.53,14.59-68.74"/><line class="cls-1" x1="308.35" y1="427.32" x2="308.35" y2="475.57"/><path class="cls-1" d="M240.4,223.42c9.27-24.29,18-45.47,25.62-63"/><line class="cls-1" x1="308.35" y1="160.45" x2="308.35" y2="211.86"/><path class="cls-1" d="M233.23,242.59c-7.72,21-15.66,44.06-23.47,68.74"/><line class="cls-1" x1="308.35" y1="251.51" x2="308.35" y2="299.76"/><path class="cls-1" d="M203.82,330.49c-6.6,21.83-13,44.8-19.08,68.74"/><line class="cls-1" x1="308.35" y1="339.42" x2="308.35" y2="387.67"/><polyline class="cls-1" points="644.9 594.21 665.91 594.21 665.91 575.04 642.88 575.04"/><line class="cls-1" x1="515.22" y1="594.21" x2="644.9" y2="594.21"/><line class="cls-1" x1="515.22" y1="575.04" x2="642.88" y2="575.04"/><line class="cls-1" x1="482.83" y1="594.21" x2="324.21" y2="594.21"/><line class="cls-1" x1="324.21" y1="575.04" x2="482.83" y2="575.04"/><polyline class="cls-1" points="152.22 575.04 127.91 575.04 127.91 594.21 150.21 594.21"/><line class="cls-1" x1="150.21" y1="594.21" x2="291.82" y2="594.21"/><line class="cls-1" x1="291.82" y1="575.04" x2="152.22" y2="575.04"/><polyline class="cls-1" points="165.44 487.13 138.93 487.13 138.93 506.3 162.02 506.3"/><line class="cls-1" x1="162.02" y1="506.3" x2="291.82" y2="506.3"/><line class="cls-1" x1="165.44" y1="487.14" x2="291.82" y2="487.14"/><line class="cls-1" x1="324.21" y1="506.3" x2="406.82" y2="506.3"/><line class="cls-1" x1="324.21" y1="487.14" x2="406.82" y2="487.14"/><polyline class="cls-1" points="633.04 506.3 654.89 506.3 654.89 487.13 629.62 487.13"/><line class="cls-1" x1="439.21" y1="506.3" x2="633.04" y2="506.3"/><line class="cls-1" x1="439.21" y1="487.14" x2="629.62" y2="487.14"/><line class="cls-1" x1="324.21" y1="399.23" x2="484.81" y2="399.23"/><line class="cls-1" x1="324.21" y1="418.4" x2="484.81" y2="418.4"/><polyline class="cls-1" points="180.03 418.4 159.64 418.4 159.64 399.23 184.74 399.23"/><line class="cls-1" x1="180.03" y1="418.4" x2="291.82" y2="418.4"/><line class="cls-1" x1="291.82" y1="399.23" x2="184.74" y2="399.23"/><polyline class="cls-1" points="614.99 418.4 634.18 418.4 634.18 399.23 610.28 399.23"/><line class="cls-1" x1="517.2" y1="399.23" x2="610.28" y2="399.23"/><line class="cls-1" x1="517.2" y1="418.4" x2="614.99" y2="418.4"/><line class="cls-1" x1="324.21" y1="330.49" x2="484.81" y2="330.49"/><line class="cls-1" x1="324.21" y1="311.33" x2="484.81" y2="311.33"/><polyline class="cls-1" points="203.82 330.5 188.28 330.5 188.28 311.33 209.76 311.33"/><line class="cls-1" x1="209.76" y1="311.33" x2="291.82" y2="311.33"/><line class="cls-1" x1="203.82" y1="330.49" x2="291.82" y2="330.49"/><polyline class="cls-1" points="591.17 330.5 605.54 330.5 605.54 311.33 585.24 311.33"/><line class="cls-1" x1="517.2" y1="330.49" x2="591.17" y2="330.49"/><line class="cls-1" x1="517.2" y1="311.33" x2="585.24" y2="311.33"/><line class="cls-1" x1="324.21" y1="223.42" x2="485.15" y2="223.42"/><line class="cls-1" x1="324.21" y1="242.59" x2="485.15" y2="242.59"/><polyline class="cls-1" points="233.23 242.59 221.76 242.59 221.76 223.42 240.4 223.42"/><line class="cls-1" x1="240.4" y1="223.42" x2="291.82" y2="223.42"/><line class="cls-1" x1="233.23" y1="242.59" x2="291.82" y2="242.59"/><polyline class="cls-1" points="561.77 242.59 572.06 242.59 572.06 223.42 554.61 223.42"/><line class="cls-1" x1="517.53" y1="223.42" x2="554.61" y2="223.42"/><line class="cls-1" x1="517.53" y1="242.59" x2="561.77" y2="242.59"/><polyline class="cls-1" points="324.21 223.42 324.21 211.86 308.35 211.86"/><polyline class="cls-1" points="324.21 242.59 324.21 251.51 308.35 251.51"/><polyline class="cls-1" points="291.82 223.42 291.82 211.86 308.35 211.86"/><polyline class="cls-1" points="291.82 242.59 291.82 251.51 308.35 251.51"/><line class="cls-1" x1="324.21" y1="223.42" x2="324.21" y2="242.59"/><line class="cls-1" x1="291.82" y1="242.59" x2="291.82" y2="223.42"/><polyline class="cls-1" points="324.21 330.5 324.21 339.42 308.35 339.42"/><polyline class="cls-1" points="324.21 311.33 324.21 299.76 308.35 299.76"/><polyline class="cls-1" points="308.35 299.76 291.82 299.76 291.82 311.33"/><polyline class="cls-1" points="308.35 339.42 291.82 339.42 291.82 330.5"/><line class="cls-1" x1="324.21" y1="311.33" x2="324.21" y2="330.49"/><line class="cls-1" x1="291.82" y1="330.49" x2="291.82" y2="311.33"/><polyline class="cls-1" points="324.21 399.23 324.21 387.67 308.35 387.67"/><polyline class="cls-1" points="324.21 418.4 324.21 427.32 308.35 427.32"/><polyline class="cls-1" points="291.82 418.4 291.82 427.32 308.35 427.32"/><polyline class="cls-1" points="291.82 399.23 291.82 387.67 308.35 387.67"/><line class="cls-1" x1="324.21" y1="399.23" x2="324.21" y2="418.4"/><line class="cls-1" x1="291.82" y1="418.4" x2="291.82" y2="399.23"/><polyline class="cls-1" points="308.35 515.23 291.82 515.23 291.82 506.3"/><polyline class="cls-1" points="324.21 506.3 324.21 515.23 308.35 515.23"/><polyline class="cls-1" points="324.21 487.13 324.21 475.57 308.35 475.57"/><polyline class="cls-1" points="308.35 475.57 291.82 475.57 291.82 487.13"/><line class="cls-1" x1="291.82" y1="506.3" x2="291.82" y2="487.14"/><line class="cls-1" x1="324.21" y1="487.14" x2="324.21" y2="506.3"/><polyline class="cls-1" points="324.21 594.21 324.21 603.13 308.35 603.13"/><polyline class="cls-1" points="291.82 594.21 291.82 603.13 308.35 603.13"/><polyline class="cls-1" points="291.82 575.04 291.82 563.47 308.35 563.47"/><polyline class="cls-1" points="324.21 575.04 324.21 563.47 308.35 563.47"/><line class="cls-1" x1="324.21" y1="575.04" x2="324.21" y2="594.21"/><line class="cls-1" x1="291.82" y1="594.21" x2="291.82" y2="575.04"/><polyline class="cls-1" points="485.14 223.42 485.14 211.86 517.53 211.86 517.53 223.42"/><polyline class="cls-1" points="485.14 242.59 485.14 251.51 517.53 251.51 517.53 242.59"/><line class="cls-1" x1="485.15" y1="242.59" x2="485.15" y2="223.42"/><line class="cls-1" x1="517.53" y1="242.59" x2="517.53" y2="223.42"/><polyline class="cls-1" points="484.81 330.5 484.81 339.42 517.2 339.42 517.2 330.5"/><polyline class="cls-1" points="484.81 311.33 484.81 299.76 517.2 299.76 517.2 311.33"/><line class="cls-1" x1="484.81" y1="330.49" x2="484.81" y2="311.33"/><line class="cls-1" x1="517.2" y1="330.49" x2="517.2" y2="311.33"/><polyline class="cls-1" points="484.81 399.23 484.81 387.67 517.2 387.67 517.2 399.23"/><polyline class="cls-1" points="484.81 418.4 484.81 427.32 517.2 427.32 517.2 418.4"/><line class="cls-1" x1="484.81" y1="418.4" x2="484.81" y2="399.23"/><line class="cls-1" x1="517.2" y1="418.4" x2="517.2" y2="399.23"/><polyline class="cls-1" points="406.82 506.3 406.82 515.23 439.21 515.23 439.21 506.3"/><polyline class="cls-1" points="406.82 487.13 406.82 475.57 439.21 475.57 439.21 487.13"/><line class="cls-1" x1="406.82" y1="506.3" x2="406.82" y2="487.14"/><line class="cls-1" x1="439.21" y1="506.3" x2="439.21" y2="487.14"/><polyline class="cls-1" points="482.83 594.21 482.83 603.13 515.22 603.13 515.22 594.21"/><polyline class="cls-1" points="482.83 575.04 482.83 563.47 515.22 563.47 515.22 575.04"/><line class="cls-1" x1="515.22" y1="594.21" x2="515.22" y2="575.04"/><line class="cls-1" x1="482.83" y1="594.21" x2="482.83" y2="575.04"/><rect class="cls-1" x="453.64" y="635.11" width="90.76" height="21.16"/><polyline class="cls-1" points="255.41 137.94 262.87 160.45 266.02 160.45"/><line class="cls-1" x1="527.13" y1="156.03" x2="533.93" y2="135.49"/><polyline class="cls-1" points="246.4 110.72 211.85 6.42 576.68 6.42 541.47 112.72"/><polyline class="cls-1" points="308.35 160.45 525.66 160.45 527.13 156.03"/><line class="cls-1" x1="308.35" y1="160.45" x2="266.02" y2="160.45"/><line class="cls-1" x1="541.47" y1="112.72" x2="533.93" y2="135.49"/><line class="cls-1" x1="246.4" y1="110.72" x2="255.42" y2="137.94"/><line class="cls-1" x1="500.37" y1="160.97" x2="500.37" y2="211.97"/><line class="cls-1" x1="500.37" y1="251.97" x2="500.37" y2="299.97"/><line class="cls-1" x1="500.37" y1="338.97" x2="500.37" y2="387.97"/><polyline class="cls-1" points="500.37 426.97 500.37 451.97 423.37 451.97 423.37 475.97"/><polyline class="cls-1" points="423.34 515.72 423.34 539.47 498.37 539.47 498.37 563.25"/><line class="cls-1" x1="499.84" y1="603.19" x2="499.84" y2="634.97"/></svg>