<svg id="Calque_1" data-name="Calque 1" xmlns="http://www.w3.org/2000/svg" viewBox="0 0 793.82 708.53"><defs><style>.cls-1{fill:none;stroke:#fff;stroke-miterlimit:10;stroke-width:11px;}</style></defs><path class="cls-1" d="M185.5,410.36q-2.34,9.5-4.6,19.18"/><path class="cls-1" d="M619.32,429.54q-2.27-9.69-4.61-19.18"/><path class="cls-1" d="M180.9,429.54q-2.22,9.49-4.33,19.17"/><path class="cls-1" d="M623.66,448.71q-2.13-9.68-4.34-19.17"/><line class="cls-1" x1="180.9" y1="429.54" x2="619.32" y2="429.54"/><path class="cls-1" d="M635,506.25q1.66,9.53,3.2,19.18"/><path class="cls-1" d="M165.28,506.25q-1.65,9.53-3.18,19.18"/><path class="cls-1" d="M645.94,583q-1.08-9.63-2.28-19.18"/><path class="cls-1" d="M156.63,563.78q-1.2,9.54-2.27,19.18"/><path class="cls-1" d="M643.66,563.78q-1.23-9.63-2.59-19.18"/><path class="cls-1" d="M159.21,544.6q-1.36,9.54-2.58,19.18"/><path class="cls-1" d="M635,506.25q-1.68-9.66-3.48-19.18"/><path class="cls-1" d="M168.76,487.07q-1.8,9.53-3.48,19.18"/><line class="cls-1" x1="165.28" y1="506.25" x2="634.97" y2="506.25"/><path class="cls-1" d="M627.71,467.89q-2-9.66-4.05-19.18"/><path class="cls-1" d="M176.57,448.71q-2.07,9.51-4,19.18"/><path class="cls-1" d="M172.52,467.89q-1.94,9.53-3.76,19.18"/><path class="cls-1" d="M631.49,487.07q-1.83-9.66-3.78-19.18"/><line class="cls-1" x1="172.52" y1="467.89" x2="627.71" y2="467.89"/><path class="cls-1" d="M162.1,525.43q-1.51,9.52-2.89,19.17"/><path class="cls-1" d="M641.07,544.6q-1.38-9.63-2.9-19.17"/><line class="cls-1" x1="641.07" y1="544.6" x2="159.21" y2="544.6"/><path class="cls-1" d="M148,676.85q.19-8.61.55-17.18"/><path class="cls-1" d="M652.35,676.85q-.21-8.61-.56-17.18"/><path class="cls-1" d="M148,676.85q-.28,12-.3,24h505q0-12-.29-24"/><line class="cls-1" x1="652.35" y1="676.85" x2="147.99" y2="676.85"/><path class="cls-1" d="M647.9,602.14q-.9-9.63-2-19.18"/><path class="cls-1" d="M154.36,583q-1.05,9.56-2,19.18"/><line class="cls-1" x1="645.94" y1="582.96" x2="154.36" y2="582.96"/><path class="cls-1" d="M149.49,640.49q-.56,9.57-1,19.18"/><path class="cls-1" d="M651.79,659.67q-.39-9.61-1-19.18"/><path class="cls-1" d="M650.83,640.49q-.55-9.62-1.29-19.17"/><path class="cls-1" d="M150.78,621.32q-.74,9.55-1.29,19.17"/><path class="cls-1" d="M649.54,621.32q-.74-9.63-1.64-19.18"/><path class="cls-1" d="M152.41,602.14q-.89,9.55-1.63,19.18"/><line class="cls-1" x1="649.54" y1="621.32" x2="150.78" y2="621.32"/><path class="cls-1" d="M261.8,180.22q-3.81,9.09-7.89,19.18"/><path class="cls-1" d="M538.44,180.22q3.81,9.09,7.87,19.18"/><path class="cls-1" d="M581.42,295.29q-3.24-9.8-6.48-19.18"/><path class="cls-1" d="M225.25,276.11q-3.24,9.39-6.48,19.18"/><path class="cls-1" d="M568.2,256.93q-3.54-9.85-7-19.17"/><path class="cls-1" d="M239,237.76q-3.48,9.31-7,19.17"/><path class="cls-1" d="M232,256.93q-3.36,9.36-6.75,19.18"/><path class="cls-1" d="M574.94,276.11q-3.39-9.81-6.74-19.18"/><line class="cls-1" x1="225.25" y1="276.11" x2="574.94" y2="276.11"/><path class="cls-1" d="M246.32,218.58q-3.58,9.25-7.3,19.18"/><path class="cls-1" d="M561.18,237.76q-3.69-9.91-7.29-19.18"/><line class="cls-1" x1="239.02" y1="237.76" x2="561.18" y2="237.76"/><path class="cls-1" d="M268.61,164.24q-3.27,7.55-6.81,16"/><path class="cls-1" d="M529.72,159.82q4.13,9.44,8.72,20.4"/><path class="cls-1" d="M246.32,218.58q3.88-10,7.59-19.18"/><path class="cls-1" d="M553.89,218.58q-3.87-10-7.58-19.18"/><line class="cls-1" x1="253.91" y1="199.4" x2="546.31" y2="199.4"/><path class="cls-1" d="M200.93,352.82q-2.73,9.46-5.41,19.18"/><path class="cls-1" d="M604.68,372q-2.68-9.72-5.42-19.18"/><path class="cls-1" d="M599.26,352.82q-2.82-9.72-5.68-19.17"/><path class="cls-1" d="M206.61,333.65q-2.85,9.44-5.68,19.17"/><line class="cls-1" x1="200.93" y1="352.82" x2="599.26" y2="352.82"/><path class="cls-1" d="M587.63,314.47q-3.09-9.77-6.21-19.18"/><path class="cls-1" d="M218.77,295.29q-3.11,9.4-6.21,19.18"/><path class="cls-1" d="M190.38,391.18q-2.49,9.48-4.88,19.18"/><path class="cls-1" d="M614.71,410.36q-2.4-9.69-4.88-19.18"/><path class="cls-1" d="M212.56,314.47q-3,9.42-5.95,19.18"/><path class="cls-1" d="M593.58,333.65q-3-9.75-6-19.18"/><line class="cls-1" x1="212.56" y1="314.47" x2="587.63" y2="314.47"/><path class="cls-1" d="M609.83,391.18q-2.55-9.71-5.15-19.18"/><path class="cls-1" d="M195.52,372q-2.61,9.48-5.14,19.18"/><line class="cls-1" x1="190.38" y1="391.18" x2="609.83" y2="391.18"/><line class="cls-1" x1="529.72" y1="159.82" x2="549.6" y2="99.81"/><polyline class="cls-1" points="244.17 99.93 265.47 164.24 268.61 164.24"/><polyline class="cls-1" points="268.61 164.24 528.26 164.24 529.72 159.82"/><line class="cls-1" x1="632.18" y1="260.9" x2="705.9" y2="521.2"/><line class="cls-1" x1="673.65" y1="242.34" x2="750.53" y2="513.8"/><polyline class="cls-1" points="705.9 521.2 704.43 521.44 700.87 595.19 785.05 581.23 757.88 512.58 750.53 513.8"/><line class="cls-1" x1="705.9" y1="521.2" x2="750.53" y2="513.8"/><polyline class="cls-1" points="673.65 242.34 681.11 239.01 603.75 66.17"/><polyline class="cls-1" points="632.18 260.9 623.44 264.81 549.6 99.81"/><line class="cls-1" x1="534.54" y1="66.17" x2="549.6" y2="99.81"/><line class="cls-1" x1="632.18" y1="260.9" x2="673.65" y2="242.34"/><line class="cls-1" x1="87.92" y1="521.2" x2="161.64" y2="260.9"/><line class="cls-1" x1="43.29" y1="513.8" x2="120.17" y2="242.34"/><polyline class="cls-1" points="43.29 513.8 35.94 512.58 8.77 581.23 92.95 595.19 89.39 521.44 87.92 521.2"/><line class="cls-1" x1="43.29" y1="513.8" x2="87.92" y2="521.2"/><polyline class="cls-1" points="190.07 66.17 112.72 239.01 120.17 242.34"/><polyline class="cls-1" points="244.17 99.93 170.38 264.81 161.64 260.9"/><line class="cls-1" x1="244.17" y1="99.93" x2="259.28" y2="66.17"/><line class="cls-1" x1="120.17" y1="242.34" x2="161.64" y2="260.9"/><line class="cls-1" x1="373.08" y1="7.86" x2="373.08" y2="65.59"/><line class="cls-1" x1="331.34" y1="7.86" x2="331.34" y2="65.59"/><line class="cls-1" x1="289.6" y1="7.86" x2="289.6" y2="65.59"/><line class="cls-1" x1="247.86" y1="65.59" x2="247.86" y2="7.86"/><line class="cls-1" x1="414.83" y1="7.86" x2="414.83" y2="65.59"/><line class="cls-1" x1="456.57" y1="7.86" x2="456.57" y2="65.59"/><line class="cls-1" x1="498.31" y1="7.86" x2="498.31" y2="65.59"/><line class="cls-1" x1="581.79" y1="65.59" x2="581.79" y2="7.86"/><polyline class="cls-1" points="190.07 66.17 149.26 66.17 149.26 7.71 638.34 7.71 638.34 66.17 603.75 66.17"/><line class="cls-1" x1="540.05" y1="7.86" x2="540.05" y2="65.59"/><line class="cls-1" x1="623.53" y1="7.86" x2="623.53" y2="65.59"/><line class="cls-1" x1="164.38" y1="65.59" x2="164.38" y2="7.86"/><line class="cls-1" x1="206.12" y1="7.86" x2="206.12" y2="65.59"/><line class="cls-1" x1="259.28" y1="66.17" x2="534.54" y2="66.17"/><line class="cls-1" x1="603.75" y1="66.17" x2="534.54" y2="66.17"/><line class="cls-1" x1="259.28" y1="66.17" x2="190.07" y2="66.17"/></svg>