<svg xmlns="http://www.w3.org/2000/svg" xmlns:xlink="http://www.w3.org/1999/xlink" width="541" height="1080" viewBox="0 0 541 1080">
  <defs>
    <clipPath id="clip-Web_1920_23">
      <rect width="541" height="1080"/>
    </clipPath>
  </defs>
  <g id="Web_1920_23" data-name="Web 1920 – 23" clip-path="url(#clip-Web_1920_23)">
    <g id="Rectangle_175" data-name="Rectangle 175" transform="translate(283 529.637)" fill="none" stroke="#e2e0e1" stroke-width="1">
      <rect width="10" height="10" rx="5" stroke="none"/>
      <rect x="0.5" y="0.5" width="9" height="9" rx="4.5" fill="none"/>
    </g>
    <g id="Rectangle_336" data-name="Rectangle 336" transform="translate(420 529.637)" fill="none" stroke="#e2e0e1" stroke-width="1">
      <rect width="10" height="10" rx="5" stroke="none"/>
      <rect x="0.5" y="0.5" width="9" height="9" rx="4.5" fill="none"/>
    </g>
    <rect id="Rectangle_328" data-name="Rectangle 328" width="6" height="6" transform="translate(283 111) rotate(-90)" fill="#e2e0e1"/>
    <rect id="Rectangle_324" data-name="Rectangle 324" width="6" height="6" transform="translate(283 95) rotate(-90)" fill="#e2e0e1"/>
    <rect id="Rectangle_319" data-name="Rectangle 319" width="6" height="6" transform="translate(283 79) rotate(-90)" fill="#e2e0e1"/>
    <rect id="Rectangle_316" data-name="Rectangle 316" width="6" height="6" transform="translate(283 63) rotate(-90)" fill="#e2e0e1"/>
    <rect id="Rectangle_317" data-name="Rectangle 317" width="6" height="6" transform="translate(283 47) rotate(-90)" fill="#e2e0e1"/>
    <rect id="Rectangle_332" data-name="Rectangle 332" width="6" height="6" transform="translate(315 111) rotate(-90)" fill="#e2e0e1"/>
    <rect id="Rectangle_325" data-name="Rectangle 325" width="6" height="6" transform="translate(315 95) rotate(-90)" fill="#e2e0e1"/>
    <rect id="Rectangle_326" data-name="Rectangle 326" width="6" height="6" transform="translate(315 79) rotate(-90)" fill="#e2e0e1"/>
    <rect id="Rectangle_333" data-name="Rectangle 333" width="6" height="6" transform="translate(299 111) rotate(-90)" fill="#e2e0e1"/>
    <rect id="Rectangle_327" data-name="Rectangle 327" width="6" height="6" transform="translate(299 95) rotate(-90)" fill="#e2e0e1"/>
    <rect id="Rectangle_320" data-name="Rectangle 320" width="6" height="6" transform="translate(299 79) rotate(-90)" fill="#e2e0e1"/>
    <rect id="Rectangle_321" data-name="Rectangle 321" width="6" height="6" transform="translate(299 63) rotate(-90)" fill="#e2e0e1"/>
    <rect id="Rectangle_322" data-name="Rectangle 322" width="6" height="6" transform="translate(299 47) rotate(-90)" fill="#e2e0e1"/>
    <g id="Groupe_138" data-name="Groupe 138" transform="translate(-232 22)">
      <rect id="Rectangle_266" data-name="Rectangle 266" width="6" height="6" transform="translate(458 532)" fill="#e2e0e1"/>
      <rect id="Rectangle_267" data-name="Rectangle 267" width="6" height="6" transform="translate(442 532)" fill="#e2e0e1"/>
      <rect id="Rectangle_268" data-name="Rectangle 268" width="6" height="6" transform="translate(426 532)" fill="#e2e0e1"/>
      <rect id="Rectangle_269" data-name="Rectangle 269" width="6" height="6" transform="translate(410 532)" fill="#e2e0e1"/>
      <rect id="Rectangle_270" data-name="Rectangle 270" width="6" height="6" transform="translate(394 532)" fill="#e2e0e1"/>
      <rect id="Rectangle_271" data-name="Rectangle 271" width="6" height="6" transform="translate(378 532)" fill="#e2e0e1"/>
      <rect id="Rectangle_254" data-name="Rectangle 254" width="6" height="6" transform="translate(458 596)" fill="#e2e0e1"/>
      <rect id="Rectangle_240" data-name="Rectangle 240" width="6" height="6" transform="translate(442 596)" fill="#e2e0e1"/>
      <rect id="Rectangle_230" data-name="Rectangle 230" width="6" height="6" transform="translate(426 596)" fill="#e2e0e1"/>
      <rect id="Rectangle_231" data-name="Rectangle 231" width="6" height="6" transform="translate(410 596)" fill="#e2e0e1"/>
      <rect id="Rectangle_232" data-name="Rectangle 232" width="6" height="6" transform="translate(394 596)" fill="#e2e0e1"/>
      <rect id="Rectangle_233" data-name="Rectangle 233" width="6" height="6" transform="translate(378 596)" fill="#e2e0e1"/>
      <rect id="Rectangle_255" data-name="Rectangle 255" width="6" height="6" transform="translate(458 564)" fill="#e2e0e1"/>
      <rect id="Rectangle_249" data-name="Rectangle 249" width="6" height="6" transform="translate(442 564)" fill="#e2e0e1"/>
      <rect id="Rectangle_250" data-name="Rectangle 250" width="6" height="6" transform="translate(426 564)" fill="#e2e0e1"/>
      <rect id="Rectangle_251" data-name="Rectangle 251" width="6" height="6" transform="translate(410 564)" fill="#e2e0e1"/>
      <rect id="Rectangle_252" data-name="Rectangle 252" width="6" height="6" transform="translate(394 564)" fill="#e2e0e1"/>
      <rect id="Rectangle_253" data-name="Rectangle 253" width="6" height="6" transform="translate(378 564)" fill="#e2e0e1"/>
      <rect id="Rectangle_229" data-name="Rectangle 229" width="6" height="6" transform="translate(410 628)" fill="#e2e0e1"/>
      <rect id="Rectangle_228" data-name="Rectangle 228" width="6" height="6" transform="translate(394 628)" fill="#e2e0e1"/>
      <rect id="Rectangle_260" data-name="Rectangle 260" width="6" height="6" transform="translate(458 548)" fill="#e2e0e1"/>
      <rect id="Rectangle_261" data-name="Rectangle 261" width="6" height="6" transform="translate(442 548)" fill="#e2e0e1"/>
      <rect id="Rectangle_262" data-name="Rectangle 262" width="6" height="6" transform="translate(426 548)" fill="#e2e0e1"/>
      <rect id="Rectangle_263" data-name="Rectangle 263" width="6" height="6" transform="translate(410 548)" fill="#e2e0e1"/>
      <rect id="Rectangle_264" data-name="Rectangle 264" width="6" height="6" transform="translate(394 548)" fill="#e2e0e1"/>
      <rect id="Rectangle_265" data-name="Rectangle 265" width="6" height="6" transform="translate(378 548)" fill="#e2e0e1"/>
      <rect id="Rectangle_236" data-name="Rectangle 236" width="6" height="6" transform="translate(410 612)" fill="#e2e0e1"/>
      <rect id="Rectangle_237" data-name="Rectangle 237" width="6" height="6" transform="translate(394 612)" fill="#e2e0e1"/>
      <rect id="Rectangle_238" data-name="Rectangle 238" width="6" height="6" transform="translate(378 612)" fill="#e2e0e1"/>
      <rect id="Rectangle_258" data-name="Rectangle 258" width="6" height="6" transform="translate(458 580)" fill="#e2e0e1"/>
      <rect id="Rectangle_243" data-name="Rectangle 243" width="6" height="6" transform="translate(442 580)" fill="#e2e0e1"/>
      <rect id="Rectangle_244" data-name="Rectangle 244" width="6" height="6" transform="translate(426 580)" fill="#e2e0e1"/>
      <rect id="Rectangle_245" data-name="Rectangle 245" width="6" height="6" transform="translate(410 580)" fill="#e2e0e1"/>
      <rect id="Rectangle_246" data-name="Rectangle 246" width="6" height="6" transform="translate(394 580)" fill="#e2e0e1"/>
      <rect id="Rectangle_247" data-name="Rectangle 247" width="6" height="6" transform="translate(378 580)" fill="#e2e0e1"/>
    </g>
    <rect id="Rectangle_232-2" data-name="Rectangle 232" width="6" height="6" transform="translate(436 618)" fill="#e2e0e1"/>
    <rect id="Rectangle_233-2" data-name="Rectangle 233" width="6" height="6" transform="translate(420 618)" fill="#e2e0e1"/>
    <rect id="Rectangle_252-2" data-name="Rectangle 252" width="6" height="6" transform="translate(436 586)" fill="#e2e0e1"/>
    <rect id="Rectangle_253-2" data-name="Rectangle 253" width="6" height="6" transform="translate(420 586)" fill="#e2e0e1"/>
    <rect id="Rectangle_229-2" data-name="Rectangle 229" width="6" height="6" transform="translate(452 650)" fill="#e2e0e1"/>
    <rect id="Rectangle_228-2" data-name="Rectangle 228" width="6" height="6" transform="translate(436 650)" fill="#e2e0e1"/>
    <rect id="Rectangle_236-2" data-name="Rectangle 236" width="6" height="6" transform="translate(452 634)" fill="#e2e0e1"/>
    <rect id="Rectangle_237-2" data-name="Rectangle 237" width="6" height="6" transform="translate(436 634)" fill="#e2e0e1"/>
    <rect id="Rectangle_238-2" data-name="Rectangle 238" width="6" height="6" transform="translate(420 634)" fill="#e2e0e1"/>
    <rect id="Rectangle_246-2" data-name="Rectangle 246" width="6" height="6" transform="translate(436 602)" fill="#e2e0e1"/>
    <rect id="Rectangle_247-2" data-name="Rectangle 247" width="6" height="6" transform="translate(420 602)" fill="#e2e0e1"/>
    <path id="Tracé_48" data-name="Tracé 48" d="M-11722.107,5526.411h464.606" transform="translate(11524.501 -4992)" fill="none" stroke="#e2e0e1" stroke-width="1"/>
    <path id="Union_2" data-name="Union 2" d="M12947.666-4989l5.334,5-5.334,5ZM12937-4979v-10h10.664v10Z" transform="translate(-12549 5830)" fill="#e2e0e1"/>
    <path id="Union_4" data-name="Union 4" d="M12947.666-4989l5.334,5-5.334,5ZM12937-4979v-10h10.664v10Z" transform="translate(-12549 5852)" fill="#e2e0e1"/>
    <path id="Union_3" data-name="Union 3" d="M12947.666-4989l5.334,5-5.334,5ZM12937-4979v-10h10.664v10Z" transform="translate(-12550 5874)" fill="#e2e0e1"/>
  </g>
</svg>
