<svg xmlns="http://www.w3.org/2000/svg" xmlns:xlink="http://www.w3.org/1999/xlink" width="541" height="1080" viewBox="0 0 541 1080">
  <defs>
    <clipPath id="clip-Web_1920_22">
      <rect width="541" height="1080"/>
    </clipPath>
  </defs>
  <g id="Web_1920_22" data-name="Web 1920 – 22" clip-path="url(#clip-Web_1920_22)">
    <rect id="Rectangle_177" data-name="Rectangle 177" width="10" height="10" transform="translate(385 182)" fill="#e2e0e1"/>
    <rect id="Rectangle_334" data-name="Rectangle 334" width="10" height="10" transform="translate(359 182)" fill="#e2e0e1"/>
    <path id="Union_1" data-name="Union 1" d="M12947.666-4989l5.334,5-5.334,5ZM12937-4979v-10h10.664v10Z" transform="translate(-12663.002 5171)" fill="#e2e0e1"/>
    <rect id="Rectangle_180" data-name="Rectangle 180" width="6" height="6" transform="translate(0 532)" fill="#e2e0e1"/>
    <rect id="Rectangle_301" data-name="Rectangle 301" width="6" height="6" transform="translate(207 878) rotate(90)" fill="#e2e0e1"/>
    <rect id="Rectangle_188" data-name="Rectangle 188" width="6" height="6" transform="translate(16 532)" fill="#e2e0e1"/>
    <rect id="Rectangle_302" data-name="Rectangle 302" width="6" height="6" transform="translate(207 894) rotate(90)" fill="#e2e0e1"/>
    <rect id="Rectangle_196" data-name="Rectangle 196" width="6" height="6" transform="translate(32 532)" fill="#e2e0e1"/>
    <rect id="Rectangle_303" data-name="Rectangle 303" width="6" height="6" transform="translate(207 910) rotate(90)" fill="#e2e0e1"/>
    <rect id="Rectangle_204" data-name="Rectangle 204" width="6" height="6" transform="translate(48 532)" fill="#e2e0e1"/>
    <rect id="Rectangle_304" data-name="Rectangle 304" width="6" height="6" transform="translate(207 926) rotate(90)" fill="#e2e0e1"/>
    <rect id="Rectangle_212" data-name="Rectangle 212" width="6" height="6" transform="translate(64 532)" fill="#e2e0e1"/>
    <rect id="Rectangle_305" data-name="Rectangle 305" width="6" height="6" transform="translate(207 942) rotate(90)" fill="#e2e0e1"/>
    <rect id="Rectangle_227" data-name="Rectangle 227" width="6" height="6" transform="translate(80 532)" fill="#e2e0e1"/>
    <rect id="Rectangle_312" data-name="Rectangle 312" width="6" height="6" transform="translate(207 958) rotate(90)" fill="#e2e0e1"/>
    <rect id="Rectangle_187" data-name="Rectangle 187" width="6" height="6" transform="translate(0 596)" fill="#e2e0e1"/>
    <rect id="Rectangle_283" data-name="Rectangle 283" width="6" height="6" transform="translate(143 878) rotate(90)" fill="#e2e0e1"/>
    <rect id="Rectangle_189" data-name="Rectangle 189" width="6" height="6" transform="translate(16 596)" fill="#e2e0e1"/>
    <rect id="Rectangle_284" data-name="Rectangle 284" width="6" height="6" transform="translate(143 894) rotate(90)" fill="#e2e0e1"/>
    <rect id="Rectangle_197" data-name="Rectangle 197" width="6" height="6" transform="translate(32 596)" fill="#e2e0e1"/>
    <rect id="Rectangle_285" data-name="Rectangle 285" width="6" height="6" transform="translate(143 910) rotate(90)" fill="#e2e0e1"/>
    <rect id="Rectangle_205" data-name="Rectangle 205" width="6" height="6" transform="translate(48 596)" fill="#e2e0e1"/>
    <rect id="Rectangle_213" data-name="Rectangle 213" width="6" height="6" transform="translate(64 596)" fill="#e2e0e1"/>
    <rect id="Rectangle_220" data-name="Rectangle 220" width="6" height="6" transform="translate(80 596)" fill="#e2e0e1"/>
    <rect id="Rectangle_183" data-name="Rectangle 183" width="6" height="6" transform="translate(0 564)" fill="#e2e0e1"/>
    <rect id="Rectangle_293" data-name="Rectangle 293" width="6" height="6" transform="translate(175 878) rotate(90)" fill="#e2e0e1"/>
    <rect id="Rectangle_190" data-name="Rectangle 190" width="6" height="6" transform="translate(16 564)" fill="#e2e0e1"/>
    <rect id="Rectangle_294" data-name="Rectangle 294" width="6" height="6" transform="translate(175 894) rotate(90)" fill="#e2e0e1"/>
    <rect id="Rectangle_198" data-name="Rectangle 198" width="6" height="6" transform="translate(32 564)" fill="#e2e0e1"/>
    <rect id="Rectangle_295" data-name="Rectangle 295" width="6" height="6" transform="translate(175 910) rotate(90)" fill="#e2e0e1"/>
    <rect id="Rectangle_206" data-name="Rectangle 206" width="6" height="6" transform="translate(48 564)" fill="#e2e0e1"/>
    <rect id="Rectangle_214" data-name="Rectangle 214" width="6" height="6" transform="translate(64 564)" fill="#e2e0e1"/>
    <rect id="Rectangle_221" data-name="Rectangle 221" width="6" height="6" transform="translate(80 564)" fill="#e2e0e1"/>
    <rect id="Rectangle_184" data-name="Rectangle 184" width="6" height="6" transform="translate(0 628)" fill="#e2e0e1"/>
    <rect id="Rectangle_191" data-name="Rectangle 191" width="6" height="6" transform="translate(16 628)" fill="#e2e0e1"/>
    <rect id="Rectangle_199" data-name="Rectangle 199" width="6" height="6" transform="translate(32 628)" fill="#e2e0e1"/>
    <rect id="Rectangle_207" data-name="Rectangle 207" width="6" height="6" transform="translate(48 628)" fill="#e2e0e1"/>
    <rect id="Rectangle_215" data-name="Rectangle 215" width="6" height="6" transform="translate(64 628)" fill="#e2e0e1"/>
    <rect id="Rectangle_181" data-name="Rectangle 181" width="6" height="6" transform="translate(0 548)" fill="#e2e0e1"/>
    <rect id="Rectangle_297" data-name="Rectangle 297" width="6" height="6" transform="translate(191 878) rotate(90)" fill="#e2e0e1"/>
    <rect id="Rectangle_192" data-name="Rectangle 192" width="6" height="6" transform="translate(16 548)" fill="#e2e0e1"/>
    <rect id="Rectangle_298" data-name="Rectangle 298" width="6" height="6" transform="translate(191 894) rotate(90)" fill="#e2e0e1"/>
    <rect id="Rectangle_200" data-name="Rectangle 200" width="6" height="6" transform="translate(32 548)" fill="#e2e0e1"/>
    <rect id="Rectangle_299" data-name="Rectangle 299" width="6" height="6" transform="translate(191 910) rotate(90)" fill="#e2e0e1"/>
    <rect id="Rectangle_208" data-name="Rectangle 208" width="6" height="6" transform="translate(48 548)" fill="#e2e0e1"/>
    <rect id="Rectangle_300" data-name="Rectangle 300" width="6" height="6" transform="translate(191 926) rotate(90)" fill="#e2e0e1"/>
    <rect id="Rectangle_216" data-name="Rectangle 216" width="6" height="6" transform="translate(64 548)" fill="#e2e0e1"/>
    <rect id="Rectangle_309" data-name="Rectangle 309" width="6" height="6" transform="translate(191 942) rotate(90)" fill="#e2e0e1"/>
    <rect id="Rectangle_223" data-name="Rectangle 223" width="6" height="6" transform="translate(80 548)" fill="#e2e0e1"/>
    <rect id="Rectangle_315" data-name="Rectangle 315" width="6" height="6" transform="translate(191 958) rotate(90)" fill="#e2e0e1"/>
    <rect id="Rectangle_186" data-name="Rectangle 186" width="6" height="6" transform="translate(0 612)" fill="#e2e0e1"/>
    <rect id="Rectangle_193" data-name="Rectangle 193" width="6" height="6" transform="translate(16 612)" fill="#e2e0e1"/>
    <rect id="Rectangle_201" data-name="Rectangle 201" width="6" height="6" transform="translate(32 612)" fill="#e2e0e1"/>
    <rect id="Rectangle_209" data-name="Rectangle 209" width="6" height="6" transform="translate(48 612)" fill="#e2e0e1"/>
    <rect id="Rectangle_217" data-name="Rectangle 217" width="6" height="6" transform="translate(64 612)" fill="#e2e0e1"/>
    <rect id="Rectangle_224" data-name="Rectangle 224" width="6" height="6" transform="translate(80 612)" fill="#e2e0e1"/>
    <rect id="Rectangle_182" data-name="Rectangle 182" width="6" height="6" transform="translate(0 580)" fill="#e2e0e1"/>
    <rect id="Rectangle_286" data-name="Rectangle 286" width="6" height="6" transform="translate(159 878) rotate(90)" fill="#e2e0e1"/>
    <rect id="Rectangle_194" data-name="Rectangle 194" width="6" height="6" transform="translate(16 580)" fill="#e2e0e1"/>
    <rect id="Rectangle_287" data-name="Rectangle 287" width="6" height="6" transform="translate(159 894) rotate(90)" fill="#e2e0e1"/>
    <rect id="Rectangle_202" data-name="Rectangle 202" width="6" height="6" transform="translate(32 580)" fill="#e2e0e1"/>
    <rect id="Rectangle_288" data-name="Rectangle 288" width="6" height="6" transform="translate(159 910) rotate(90)" fill="#e2e0e1"/>
    <rect id="Rectangle_210" data-name="Rectangle 210" width="6" height="6" transform="translate(48 580)" fill="#e2e0e1"/>
    <rect id="Rectangle_218" data-name="Rectangle 218" width="6" height="6" transform="translate(64 580)" fill="#e2e0e1"/>
    <rect id="Rectangle_225" data-name="Rectangle 225" width="6" height="6" transform="translate(80 580)" fill="#e2e0e1"/>
    <rect id="Rectangle_185" data-name="Rectangle 185" width="6" height="6" transform="translate(0 644)" fill="#e2e0e1"/>
    <rect id="Rectangle_195" data-name="Rectangle 195" width="6" height="6" transform="translate(16 644)" fill="#e2e0e1"/>
    <rect id="Rectangle_203" data-name="Rectangle 203" width="6" height="6" transform="translate(32 644)" fill="#e2e0e1"/>
    <path id="Tracé_46" data-name="Tracé 46" d="M-11722.107,5526.411h404" transform="translate(11859.107 -4992)" fill="none" stroke="#e2e0e1" stroke-width="1"/>
  </g>
</svg>
